<svg id="Layer_1" data-name="Layer 1" xmlns="http://www.w3.org/2000/svg" viewBox="0 0 1366 382.76"><title>Ar_M</title><path d="M70.62,230.43a19.51,19.51,0,0,0,16.34-8q5,8,15.67,8A18.54,18.54,0,0,0,116.14,225a17.18,17.18,0,0,0,5.56-12.62,17.94,17.94,0,0,0-5.56-13.28,18.54,18.54,0,0,0-13.51-5.47q-9.76,0-16.12,8.71a17.94,17.94,0,0,0-15.89-8.71,18.78,18.78,0,0,0-13.29,5.47,17.61,17.61,0,0,0-5.79,13.28A17.19,17.19,0,0,0,57.11,225,18.54,18.54,0,0,0,70.62,230.43Zm32.47-24.11q5.67,0,5.67,5.58,0,5.35-5.67,5.36c-3.64,0-5.45-1.79-5.45-5.36C97.64,208.18,99.45,206.32,103.09,206.32Zm-32,0c3.78,0,5.68,1.86,5.68,5.58,0,3.57-1.9,5.36-5.68,5.36s-5.68-1.79-5.68-5.36Q65.39,206.32,71.07,206.32Z" transform="translate(0 -193.14)"/><path d="M261.57,193.59a18.92,18.92,0,0,0-13.17,5.47,17.47,17.47,0,0,0-5.9,13.28A17,17,0,0,0,248.18,225a19.28,19.28,0,0,0,26.91,0,17.21,17.21,0,0,0,5.56-12.62,18,18,0,0,0-5.56-13.28A18.56,18.56,0,0,0,261.57,193.59Zm.46,23.67q-5.44,0-5.45-5.36,0-5.58,5.45-5.58c3.78,0,5.68,1.86,5.68,5.58C267.71,215.47,265.81,217.26,262,217.26Z" transform="translate(0 -193.14)"/><path d="M249.54,432.31q0,37.51-30.65,37.51H200.27V236L167.8,246.51l9.76,14.74H159.4q-66.08,0-112.74,45.67T0,417.57q0,52.69,31.56,93.79H61.31a95.19,95.19,0,0,1-15.9-18.76H227.29v-.45q45.14-4.44,45.18-58.5V261.25H249.54Zm-72,37.51H32.92a130.8,130.8,0,0,1-10.67-52.25q0-55.83,40-94.69T159.4,284h18.16Z" transform="translate(0 -193.14)"/><path d="M611.7,230.43A18.28,18.28,0,0,0,625,225a17.21,17.21,0,0,0,5.56-12.62A18,18,0,0,0,625,199.06a18.28,18.28,0,0,0-13.29-5.47,18.78,18.78,0,0,0-13.28,5.47,17.61,17.61,0,0,0-5.79,13.28A17.18,17.18,0,0,0,598.19,225,18.54,18.54,0,0,0,611.7,230.43Zm.46-24.11q5.45,0,5.45,5.58,0,5.35-5.45,5.36-5.68,0-5.68-5.36Q606.48,206.32,612.16,206.32Z" transform="translate(0 -193.14)"/><path d="M1343.75,309.26q-35.43-47.56-95.37-47.56a116.63,116.63,0,0,0-69.7,22.33q-47.46,33.95-47.46,92.9a112,112,0,0,0,21.8,67.21q8.85,11.83,27.93,25.68H1003.36V386.53q0-31-18.68-48.68T933.44,320.2H735.08q13-49.35,51.12-78.38t94-29l-25.42-19.65q-60.66,0-102.76,41.76T702,341.64H936.62q18.52,0,29.13,11.73t10.59,31.37v85.08H652.12q-30.66,0-30.65-37.51V261.25H598.53V432.31q0,37.51-30.65,37.51H517.7l3.41-4.24q22.25-28.35,30.2-48.46,7.26-17.87,7.26-40.64,0-47.12-34.62-81T441,261.7q-48.81,0-83.44,34.05t-34.63,82.07q0,47.12,34.63,80.95t82.54,33.83q16.8,0,37.23-6.92l-56.76,77.71,19.07,12.51,61.31-83.3h73.57v-.28q23.07-1.95,35.64-18c8.6,11.55,21.65,17.57,39.06,18.19v.12h574q37.23,0,57.22-4.8a111.84,111.84,0,0,0,38.15-17.53q47.45-34.38,47.45-92.9Q1366,339.41,1343.75,309.26Zm-903.25,161q-38.14,0-66.3-27.47T346,378.26q0-38.85,27.7-66.32T441,284.47q38.61,0,66.53,27.25t27.93,65.65q0,38-27.93,65.43T440.5,470.27ZM1304.24,452a94.4,94.4,0,0,1-55.86,17.86q-48.36,0-76.74-38.41-17.72-23.45-17.71-53.59,0-48,38.14-75.48A93.5,93.5,0,0,1,1248.38,284q47.91,0,76.3,38.41a89.52,89.52,0,0,1,18.16,54.93Q1342.84,424.48,1304.24,452Z" transform="translate(0 -193.14)"/></svg>