<?xml version="1.0" ?><!DOCTYPE svg  PUBLIC '-//W3C//DTD SVG 1.1//EN'  'http://www.w3.org/Graphics/SVG/1.1/DTD/svg11.dtd'><svg height="512px" style="shape-rendering:geometricPrecision; text-rendering:geometricPrecision; image-rendering:optimizeQuality; fill-rule:evenodd; clip-rule:evenodd" viewBox="0 0 512 512" width="512px" xml:space="preserve" xmlns="http://www.w3.org/2000/svg" xmlns:xlink="http://www.w3.org/1999/xlink"><defs><style type="text/css">
   <![CDATA[
    .str0 {stroke:black;stroke-width:0.125102}
    .fil0 {fill:none}
    .fil1 {fill:black}
    .fil2 {fill:#1A1A1A}
    .fil7 {fill:#424242}
    .fil8 {fill:#595959}
    .fil9 {fill:#636363}
    .fil5 {fill:#999999}
    .fil6 {fill:#B3B3B3}
    .fil4 {fill:#CCCCCC}
    .fil3 {fill:#E6E6E6}
   ]]>
  </style></defs><g id="Layer_x0020_1"><rect class="fil0" height="512" width="512" y="0.000377953"/><g id="_275676976"><rect class="fil1" height="14.3085" id="_394806096" width="332.046" x="89.1175" y="343.602"/><path class="fil2" d="M94.8858 136.354l320.496 0c3.17254,0 5.76832,2.59616 5.76832,5.76832l0 205.45c0,3.17254 -2.59616,5.76832 -5.76832,5.76832l-320.496 0c-3.17254,0 -5.76832,-2.5954 -5.76832,-5.76832l0 -205.45c0,-3.17254 2.59578,-5.76832 5.76832,-5.76832z" id="_394805568"/><rect class="fil3 str0" height="194.209" id="_394805856" width="312.421" x="99.7316" y="148.522"/><g><rect class="fil4" height="10.9501" id="_394805928" width="410.281" x="50.86" y="357.853"/><path class="fil5" d="M227.684 357.853l56.6317 0 0 1.70608c0,2.10784 -1.7246,3.83244 -3.83244,3.83244l-48.9672 0c-2.10784,0 -3.83244,-1.7246 -3.83244,-3.83244l0 -1.70608 0.000377953 0z" id="_394805712"/><path class="fil6" d="M256 368.803l204.626 0c0.0941103,0 0.170457,0.0767244 0.170457,0.170457 0,3.18047 -14.0413,5.96825 -22.3797,6.67276l-182.417 0 -182.417 0c-8.3384,-0.704126 -22.3797,-3.49191 -22.3797,-6.67276 0,-0.0937323 0.0767244,-0.170457 0.170457,-0.170457l204.626 0 0.000755906 0z" id="_394805496"/></g><g><circle class="fil7" id="_275677048" r="1.2" transform="matrix(1.30067 1.32352 -1.32373 1.30047 255.134 142.182)"/><circle class="fil8" id="_275677096" r="1.2" transform="matrix(1.00675 1.02443 -1.02459 1.00659 255.134 142.182)"/><path class="fil9" d="M256.364 140.973c0.667087,0.678803 0.657638,1.76995 -0.0215433,2.43704 -0.12548,0.123591 -0.265323,0.223748 -0.414236,0.300851 -0.48,-0.256252 -0.895748,-0.718489 -1.12743,-1.31943 -0.258142,-0.669355 -0.231685,-1.36479 0.0188976,-1.90564 0.544252,-0.100535 1.12706,0.0623622 1.54432,0.486803l0 0.000377953z" id="_275676280"/></g></g></g></svg>